<svg width="125" height="130" viewBox="0 0 125 130" fill="none" xmlns="http://www.w3.org/2000/svg">
<path d="M23.5015 0H101.499C114.478 0 125 10.7151 125 23.9326V76.0273C125 89.2449 114.478 99.9598 101.499 99.9598H90.3049C89.7723 99.9598 89.3407 100.399 89.3407 100.942V126.639C89.3407 129.677 85.6912 131.15 83.6474 128.937L57.1711 100.269C56.9888 100.072 56.7345 99.9598 56.4685 99.9598H23.5015C10.5219 99.9598 0 89.2447 0 76.0273V23.9326C0 10.7151 10.5222 0 23.5015 0Z" fill="#AE642A"/>
<path d="M79.4534 91.0281C79.4534 90.4571 79.8712 89.9942 80.3869 89.9942H91.2234C103.789 89.9942 113.975 78.7108 113.975 64.7921V9.93361C113.975 7.57836 113.682 5.29903 113.137 3.13651C120.224 7.25844 125 15.0272 125 23.9325V76.0272C125 89.2446 114.478 99.9598 101.498 99.9598H90.3049C89.7723 99.9598 89.3407 100.4 89.3407 100.942V126.639C89.3407 129.677 85.6912 131.15 83.6474 128.937L79.4536 124.396V91.0281H79.4534Z" fill="#C4702E"/>
<path d="M36.0934 31.0592C42.0602 24.983 51.7344 24.983 57.7015 31.0592L61.072 34.4916C61.8756 35.3099 63.1788 35.3099 63.9824 34.4916L67.2991 31.1141C73.2659 25.0378 82.9401 25.0378 88.9071 31.1141C94.874 37.1903 94.874 47.042 88.9071 53.1185L63.9805 78.5024C63.1769 79.3207 61.8736 79.3207 61.07 78.5024L36.0937 53.0636C30.1266 46.9871 30.1266 37.1358 36.0934 31.0592Z" fill="#EC5569"/>
<path d="M36.0934 31.0592C42.0602 24.983 51.7344 24.983 57.7015 31.0592L61.072 34.4916C61.8756 35.3099 63.1788 35.3099 63.9824 34.4916L67.2991 31.1141C73.2659 25.0378 82.9401 25.0378 88.9071 31.1141C94.874 37.1903 94.874 47.042 88.9071 53.1185L63.9805 78.5024C63.1769 79.3207 61.8736 79.3207 61.07 78.5024L36.0937 53.0636C30.1266 46.9871 30.1266 37.1358 36.0934 31.0592Z" fill="#FFF3EA"/>
<path d="M80.9145 53.1185C86.8813 47.0422 86.8813 37.1906 80.9145 31.1141C78.9572 29.1209 76.6 27.7859 74.1069 27.1006C79.2148 25.696 84.8976 27.031 88.9069 31.1141C94.8737 37.1903 94.8737 47.042 88.9069 53.1185L63.9802 78.5024C63.1766 79.3207 61.8733 79.3207 61.0697 78.5024L58.529 75.9145L80.9145 53.1185Z" fill="#FEDDC3"/>
</svg>
