<svg width="47" height="48" viewBox="0 0 47 48" fill="none" xmlns="http://www.w3.org/2000/svg">
<path d="M8.83656 0H38.1634C43.0439 0 47 3.95636 47 8.83664V28.0716C47 32.952 43.0437 36.9082 38.1634 36.9082H33.9546C33.7544 36.9082 33.5921 37.0705 33.5921 37.2708V46.759C33.5921 47.8808 32.2199 48.4247 31.4514 47.6074L21.4963 37.0224C21.4278 36.9495 21.3322 36.9082 21.2321 36.9082H8.83656C3.95624 36.9082 0 32.9519 0 28.0716V8.83664C0 3.95636 3.95633 0 8.83656 0Z" fill="#AE642A"/>
<path d="M29.8745 33.6104C29.8745 33.3995 30.0316 33.2286 30.2255 33.2286H34.3C39.0246 33.2286 42.8547 29.0624 42.8547 23.9232V3.6678C42.8547 2.79817 42.7446 1.95657 42.5396 1.1581C45.204 2.68004 47 5.54852 47 8.83663V28.0716C47 32.9519 43.0437 36.9082 38.1634 36.9082H33.9546C33.7544 36.9082 33.5921 37.0706 33.5921 37.2708V46.759C33.5921 47.8808 32.2199 48.4247 31.4514 47.6074L29.8746 45.9307V33.6104H29.8745Z" fill="#C4702E"/>
<path d="M13.5711 11.468C15.8146 9.22448 19.4521 9.22448 21.6957 11.468L22.9631 12.7353C23.2652 13.0375 23.7552 13.0375 24.0574 12.7353L25.3045 11.4883C27.548 9.24473 31.1855 9.24473 33.4291 11.4883C35.6726 13.7318 35.6726 17.3693 33.4291 19.613L24.0566 28.9855C23.7545 29.2876 23.2645 29.2876 22.9623 28.9855L13.5712 19.5927C11.3276 17.3491 11.3276 13.7117 13.5711 11.468Z" fill="#EC5569"/>
<path d="M13.5711 11.468C15.8146 9.22448 19.4521 9.22448 21.6957 11.468L22.9631 12.7353C23.2652 13.0375 23.7552 13.0375 24.0574 12.7353L25.3045 11.4883C27.548 9.24473 31.1855 9.24473 33.4291 11.4883C35.6726 13.7318 35.6726 17.3693 33.4291 19.613L24.0566 28.9855C23.7545 29.2876 23.2645 29.2876 22.9623 28.9855L13.5712 19.5927C11.3276 17.3491 11.3276 13.7117 13.5711 11.468Z" fill="#FFF3EA"/>
<path d="M30.4238 19.613C32.6674 17.3694 32.6674 13.7319 30.4238 11.4883C29.6879 10.7523 28.8016 10.2594 27.8642 10.0064C29.7848 9.48774 31.9215 9.98068 33.429 11.4883C35.6725 13.7318 35.6725 17.3693 33.429 19.613L24.0566 28.9855C23.7544 29.2876 23.2644 29.2876 22.9622 28.9855L22.0069 28.03L30.4238 19.613Z" fill="#FEDDC3"/>
</svg>
