<svg width="171" height="177" viewBox="0 0 171 177" fill="none" xmlns="http://www.w3.org/2000/svg">
<path d="M138.244 0H32.0098C14.3308 0 0 14.5728 0 32.5487V103.398C0 121.375 14.3315 135.947 32.0098 135.947H47.2558C47.9812 135.947 48.569 136.545 48.569 137.283V172.231C48.569 176.363 53.5398 178.367 56.3235 175.356L92.385 136.368C92.6333 136.099 92.9797 135.947 93.342 135.947H138.244C155.923 135.947 170.254 121.374 170.254 103.398V32.5487C170.254 14.5728 155.922 0 138.244 0Z" fill="#C4702E"/>
<path d="M62.0359 123.8C62.0359 123.023 61.4667 122.394 60.7644 122.394H46.0047C28.8902 122.394 15.0161 107.048 15.0161 88.1184V13.5099C15.0161 10.3067 15.4148 7.2068 16.1575 4.26572C6.50573 9.87162 0 20.4373 0 32.5487V103.398C0 121.374 14.3315 135.947 32.0098 135.947H47.2558C47.9812 135.947 48.569 136.545 48.569 137.283V172.231C48.569 176.363 53.5398 178.367 56.3235 175.356L62.0356 169.18V123.8H62.0359Z" fill="#AE642A"/>
<path d="M121.093 42.2411C112.966 33.9773 99.79 33.9773 91.6627 42.2411L87.0719 46.9091C85.9774 48.0221 84.2023 48.0221 83.1078 46.9091L78.5904 42.3157C70.4634 34.0519 57.2869 34.0519 49.1596 42.3157C41.0326 50.5795 41.0326 63.9779 49.1596 72.2421L83.1105 106.765C84.205 107.878 85.9801 107.878 87.0746 106.765L121.093 72.1675C129.22 63.9033 129.22 50.5053 121.093 42.2411Z" fill="#EC5569"/>
<path d="M121.093 42.2411C112.966 33.9773 99.79 33.9773 91.6627 42.2411L87.0719 46.9091C85.9774 48.0221 84.2023 48.0221 83.1078 46.9091L78.5904 42.3157C70.4634 34.0519 57.2869 34.0519 49.1596 42.3157C41.0326 50.5795 41.0326 63.9779 49.1596 72.2421L83.1105 106.765C84.205 107.878 85.9801 107.878 87.0746 106.765L121.093 72.1675C129.22 63.9033 129.22 50.5053 121.093 42.2411Z" fill="#FFF3EA"/>
<path d="M60.0458 72.2421C51.9189 63.9783 51.9189 50.5799 60.0458 42.3157C62.7117 39.605 65.9223 37.7893 69.318 36.8573C62.3609 34.947 54.6207 36.7626 49.1599 42.3157C41.033 50.5795 41.033 63.9779 49.1599 72.2421L83.1109 106.765C84.2054 107.878 85.9805 107.878 87.075 106.765L90.5355 103.245L60.0458 72.2421Z" fill="#FEDDC3"/>
</svg>
