<svg width="37" height="38" viewBox="0 0 37 38" fill="none" xmlns="http://www.w3.org/2000/svg">
<path d="M6.95644 0H30.0436C33.8856 0 37 3.13212 37 6.99567V22.2234C37 26.087 33.8854 29.219 30.0436 29.219H26.7302C26.5726 29.219 26.4448 29.3475 26.4448 29.506V37.0175C26.4448 37.9056 25.3646 38.3362 24.7596 37.6892L16.9226 29.3094C16.8687 29.2517 16.7934 29.219 16.7147 29.219H6.95644C3.11448 29.219 0 26.0869 0 22.2234V6.99567C0 3.13212 3.11456 0 6.95644 0Z" fill="#AE642A"/>
<path d="M23.5182 26.6082C23.5182 26.4413 23.6419 26.306 23.7945 26.306H27.0021C30.7215 26.306 33.7367 23.0078 33.7367 18.9392V2.90367C33.7367 2.21521 33.65 1.54895 33.4886 0.916824C35.5862 2.1217 37 4.39258 37 6.99567V22.2233C37 26.0869 33.8854 29.219 30.0436 29.219H26.7302C26.5726 29.219 26.4448 29.3476 26.4448 29.506V37.0175C26.4448 37.9056 25.3646 38.3362 24.7596 37.6892L23.5183 36.3618V26.6082H23.5182Z" fill="#C4702E"/>
<path d="M10.6836 9.07885C12.4498 7.30272 15.3134 7.30272 17.0796 9.07885L18.0773 10.0821C18.3152 10.3214 18.7009 10.3214 18.9388 10.0821L19.9205 9.09488C21.6867 7.31875 24.5503 7.31875 26.3165 9.09488C28.0827 10.871 28.0827 13.7507 26.3165 15.5269L18.9382 22.9468C18.7003 23.186 18.3146 23.186 18.0767 22.9468L10.6837 15.5109C8.91746 13.7347 8.91747 10.8551 10.6836 9.07885Z" fill="#EC5569"/>
<path d="M10.6836 9.07885C12.4498 7.30272 15.3134 7.30272 17.0796 9.07885L18.0773 10.0821C18.3152 10.3214 18.7009 10.3214 18.9388 10.0821L19.9205 9.09488C21.6867 7.31875 24.5503 7.31875 26.3165 9.09488C28.0827 10.871 28.0827 13.7507 26.3165 15.5269L18.9382 22.9468C18.7003 23.186 18.3146 23.186 18.0767 22.9468L10.6837 15.5109C8.91746 13.7347 8.91747 10.8551 10.6836 9.07885Z" fill="#FFF3EA"/>
<path d="M23.9507 15.5269C25.7169 13.7508 25.7169 10.8711 23.9507 9.09489C23.3713 8.51227 22.6736 8.12202 21.9356 7.92171C23.4476 7.51113 25.1297 7.90137 26.3164 9.09489C28.0826 10.871 28.0826 13.7507 26.3164 15.5269L18.9381 22.9468C18.7003 23.1861 18.3145 23.1861 18.0766 22.9468L17.3246 22.1904L23.9507 15.5269Z" fill="#FEDDC3"/>
</svg>
