<svg width="78" height="81" viewBox="0 0 78 81" fill="none" xmlns="http://www.w3.org/2000/svg">
<path d="M63.3351 0H14.6649C6.56551 0 0 6.67636 0 14.9118V47.3708C0 55.6064 6.56582 62.2827 14.6649 62.2827H21.6498C21.9821 62.2827 22.2514 62.5565 22.2514 62.8944V78.9058C22.2514 80.7988 24.5287 81.7167 25.804 80.3375L42.3252 62.4753C42.439 62.3523 42.5977 62.2827 42.7637 62.2827H63.3351C71.4343 62.2827 78 55.6063 78 47.3708V14.9118C78 6.67636 71.4342 0 63.3351 0Z" fill="#C4702E"/>
<path d="M28.4211 56.7175C28.4211 56.3617 28.1603 56.0733 27.8386 56.0733H21.0766C13.2357 56.0733 6.87948 49.0429 6.87948 40.3705V6.1894C6.87948 4.7219 7.06214 3.30171 7.4024 1.95428C2.98053 4.52257 0 9.36313 0 14.9118V47.3708C0 55.6063 6.56582 62.2826 14.6649 62.2826H21.6497C21.9821 62.2826 22.2514 62.5567 22.2514 62.8944V78.9058C22.2514 80.7988 24.5287 81.7167 25.804 80.3375L28.4209 77.508V56.7175H28.4211Z" fill="#AE642A"/>
<path d="M55.4777 19.3523C51.7544 15.5663 45.7178 15.5663 41.9943 19.3523L39.8911 21.4909C39.3897 22.0008 38.5764 22.0008 38.075 21.4909L36.0054 19.3864C32.2821 15.6005 26.2454 15.6005 22.522 19.3864C18.7987 23.1724 18.7987 29.3107 22.522 33.0969L38.0762 48.913C38.5777 49.4229 39.3909 49.4229 39.8924 48.913L55.4776 33.0627C59.201 29.2766 59.201 23.1384 55.4777 19.3523Z" fill="#EC5569"/>
<path d="M55.4777 19.3523C51.7544 15.5663 45.7178 15.5663 41.9943 19.3523L39.8911 21.4909C39.3897 22.0008 38.5764 22.0008 38.075 21.4909L36.0054 19.3864C32.2821 15.6005 26.2454 15.6005 22.522 19.3864C18.7987 23.1724 18.7987 29.3107 22.522 33.0969L38.0762 48.913C38.5777 49.4229 39.3909 49.4229 39.8924 48.913L55.4776 33.0627C59.201 29.2766 59.201 23.1384 55.4777 19.3523Z" fill="#FFF3EA"/>
<path d="M27.5094 33.0969C23.7861 29.3109 23.7861 23.1726 27.5094 19.3865C28.7307 18.1446 30.2016 17.3127 31.7573 16.8857C28.57 16.0105 25.0239 16.8424 22.5221 19.3865C18.7988 23.1724 18.7988 29.3107 22.5221 33.0969L38.0764 48.913C38.5778 49.4229 39.3911 49.4229 39.8925 48.913L41.4779 47.3006L27.5094 33.0969Z" fill="#FEDDC3"/>
</svg>
